<?xml version="1.0" encoding="UTF-8"?>
<svg xmlns="http://www.w3.org/2000/svg" version="1.1" viewBox="0 0 900 900">
  <defs>
    <style>
      .cls-1 {
        fill: #72c5c7;
      }

      .cls-2 {
        fill: #a9d9de;
      }

      .cls-3 {
        fill: #1ab4b6;
      }
    </style>
  </defs>
  <!-- Generator: Adobe Illustrator 28.7.3, SVG Export Plug-In . SVG Version: 1.2.0 Build 164)  -->
  <g>
    <g id="Camada_1">
      <path class="cls-3" d="M324.85,504.93c-47.98-4.17-98.42,5.81-136.93,34.72-37.7,28.31-60.67,71.5-83.82,112.58-23.15,41.07-49.41,83.17-90.47,106.35,58.47,38.15,118.28,76.9,185.87,94.38,25.4,6.57,52.49,9.97,77.73,2.8,36.36-10.33,63.68-41.3,80.44-75.18,16.76-33.88,24.86-71.25,36.24-107.29,11.38-36.05,26.96-72.24,54.94-97.66,8.28-7.52,21.99-19.55,10.85-29.68-9.3-8.46-30.22-13.41-41.96-17.99-29.8-11.62-60.95-20.26-92.89-23.03Z"/>
      <path class="cls-1" d="M355.33,463.36c-49.42-8.21-100.06-9.28-148.64-21.52-48.58-12.24-96.81-38.07-120.76-82.07-26.55-48.78-18.02-109.21-.18-161.8,17.84-52.59,44.33-102.82,52.57-157.74,58.73,43.97,123.17,80.31,191.19,107.83,48.61,19.66,100.97,36.06,137.57,73.61,37.39,38.37,52.59,94.1,52.41,147.67-.09,28.61-4.17,57.03-9.98,84.99-2.92,14.05-6.32,27.99-9.88,41.9-3.08,12.02-1.94,27.3-15.68,23.43-8.26-2.33-20.11-16.75-27.93-21.64-10.15-6.35-20.93-11.63-32.02-16.14-22.01-8.95-45.28-14.63-68.68-18.52Z"/>
      <path class="cls-2" d="M554.56,314.78c-1.86-35.33-6.39-72.62,8.88-104.53,16.72-34.93,54.71-55.88,92.98-61.73,38.28-5.84,77.26,1.18,115.14,9.19,37.88,8.01,76.12,17.09,114.8,15.36-25.18,34.44-38.52,76.01-48.9,117.4-10.38,41.38-18.27,83.63-34.28,123.18-16.01,39.54-41.29,76.99-78.26,98.27-28.89,16.63-63.05,22.3-96.38,21.62-24.65-.5-54.09-1.96-77.63-9.88-24.53-8.25-13.19-27.61-8.91-47.91,11.13-52.81,15.39-107.07,12.55-160.97Z"/>
    </g>
  </g>
</svg>