<?xml version="1.0" encoding="UTF-8"?>
<svg xmlns="http://www.w3.org/2000/svg" version="1.1" viewBox="0 0 164 38">
  <defs>
    <style>
      .cls-1 {
        font-family: Poppins-ExtraBold, Poppins;
        font-weight: 700;
      }

      .cls-1, .cls-2 {
        fill: #16b3b6;
      }

      .cls-1, .cls-3 {
        font-size: 23.68px;
      }

      .cls-4 {
        fill: #71c4c6;
      }

      .cls-5 {
        fill: #a8d9de;
      }

      .cls-3 {
        fill: #e38199;
        font-family: Poppins-Regular, Poppins;
      }
    </style>
  </defs>
  <!-- Generator: Adobe Illustrator 28.7.3, SVG Export Plug-In . SVG Version: 1.2.0 Build 164)  -->
  <g>
    <g id="Camada_1">
      <path class="cls-2" d="M13.72,19.93c-1.86-.16-3.83.23-5.32,1.35-1.47,1.1-2.36,2.78-3.26,4.38s-1.92,3.23-3.52,4.13c2.27,1.48,4.6,2.99,7.22,3.67.99.26,2.04.39,3.02.11,1.41-.4,2.48-1.61,3.13-2.92s.97-2.77,1.41-4.17,1.05-2.81,2.14-3.8c.32-.29.85-.76.42-1.15-.36-.33-1.17-.52-1.63-.7-1.16-.45-2.37-.79-3.61-.9Z"/>
      <path class="cls-4" d="M14.9,18.32c-1.92-.32-3.89-.36-5.78-.84s-3.76-1.48-4.69-3.19c-1.03-1.9-.7-4.24,0-6.29s1.72-4,2.04-6.13c2.28,1.71,4.79,3.12,7.43,4.19,1.89.76,3.92,1.4,5.35,2.86,1.45,1.49,2.04,3.66,2.04,5.74,0,1.11-.16,2.22-.39,3.3-.11.55-.25,1.09-.38,1.63-.12.47-.08,1.06-.61.91-.32-.09-.78-.65-1.09-.84-.39-.25-.81-.45-1.24-.63-.86-.35-1.76-.57-2.67-.72Z"/>
      <path class="cls-5" d="M22.64,12.54c-.07-1.37-.25-2.82.35-4.06.65-1.36,2.13-2.17,3.61-2.4s3,.05,4.48.36,2.96.66,4.46.6c-.98,1.34-1.5,2.95-1.9,4.56s-.71,3.25-1.33,4.79-1.6,2.99-3.04,3.82c-1.12.65-2.45.87-3.75.84-.96-.02-2.1-.08-3.02-.38s-.51-1.07-.35-1.86c.43-2.05.6-4.16.49-6.26Z"/>
      <text class="cls-1" transform="translate(35.89 30.13)"><tspan x="0" y="0">mood</tspan></text>
      <text class="cls-3" transform="translate(108.09 30.13)"><tspan x="0" y="0">care</tspan></text>
    </g>
  </g>
</svg>